@startuml
!pragma layout smetana

class TemperatureAdapter {
  static Temperature celsiusToFahrenheit()

  static Temperature fahrenheitToCelsius()
}

class Temperature {
  final double value;
  final String unit;

  Temperature(this.value, this.unit);
}


  class TemperatureConverterScreen {}

TemperatureAdapter <|-- Temperature
TemperatureAdapter <|-- TemperatureConverterScreen


@enduml